<?xml version="1.0" standalone="no"?>
<!DOCTYPE svg PUBLIC "-//W3C//DTD SVG 20010904//EN"
 "http://www.w3.org/TR/2001/REC-SVG-20010904/DTD/svg10.dtd">
<svg version="1.0" xmlns="http://www.w3.org/2000/svg"
 width="890.000000pt" height="446.000000pt" viewBox="0 0 890.000000 446.000000"
 preserveAspectRatio="xMidYMid meet">

<g transform="translate(0.000000,446.000000) scale(0.100000,-0.100000)"
fill="#000000" stroke="none">
<path d="M2165 3504 c-111 -16 -198 -57 -275 -130 -184 -175 -186 -458 -5
-639 93 -92 207 -135 361 -135 175 0 318 80 388 217 19 37 46 146 46 186 l0
27 -185 0 -185 0 0 -35 0 -35 134 0 c81 0 137 -4 141 -10 13 -21 -27 -110 -73
-161 -111 -123 -287 -150 -459 -70 -112 53 -188 152 -213 277 -45 230 164 449
414 431 101 -7 179 -39 291 -121 18 -13 23 -12 50 9 l29 24 -24 26 c-36 38
-125 90 -195 113 -60 20 -184 33 -240 26z"/>
<path d="M2985 3251 c-16 -10 -41 -30 -54 -45 -33 -35 -39 -33 -43 12 -3 35
-5 37 -40 40 l-38 3 0 -320 0 -321 39 0 39 0 4 218 c3 211 4 219 29 267 32 62
78 95 134 95 34 0 44 5 54 24 8 13 10 29 7 35 -12 18 -98 13 -131 -8z"/>
<path d="M3383 3249 c-66 -26 -133 -92 -169 -167 -24 -48 -28 -70 -29 -142 0
-77 3 -92 33 -152 40 -81 103 -140 175 -164 67 -22 177 -22 244 0 56 19 136
83 165 134 18 29 17 30 -7 46 -33 22 -36 21 -71 -27 -17 -24 -55 -55 -85 -72
-47 -26 -64 -30 -130 -30 -67 0 -81 4 -124 30 -58 36 -100 92 -116 156 -22 83
-37 79 287 79 l287 0 -6 50 c-12 104 -79 200 -171 248 -71 36 -207 42 -283 11z
m242 -73 c28 -13 63 -38 78 -56 32 -37 60 -98 51 -111 -8 -13 -484 -12 -484 1
0 23 29 78 59 112 70 80 193 102 296 54z"/>
<path d="M4210 3261 c-87 -27 -159 -91 -202 -180 -33 -68 -37 -188 -8 -263 24
-66 96 -150 149 -178 139 -70 331 -32 423 83 45 57 47 70 12 85 -24 11 -29 8
-82 -47 -45 -47 -68 -63 -111 -75 -30 -9 -70 -16 -89 -16 -120 0 -233 105
-244 225 l-3 40 293 3 293 2 -6 48 c-4 26 -20 75 -36 109 -54 114 -156 174
-292 172 -40 0 -83 -4 -97 -8z m221 -89 c59 -30 105 -87 115 -139 l7 -33 -243
0 -242 0 6 30 c3 17 19 51 36 74 65 95 211 126 321 68z"/>
<path d="M5025 3254 c-21 -8 -60 -32 -86 -54 -26 -22 -50 -40 -53 -40 -3 0 -6
23 -6 51 l0 50 -37 -3 -38 -3 -3 -317 -2 -318 39 0 39 0 4 208 c3 190 5 210
25 248 90 169 319 175 368 11 11 -38 15 -102 15 -259 l0 -208 36 0 36 0 -4
243 c-3 225 -4 245 -25 282 -27 51 -68 90 -115 109 -46 20 -140 19 -193 0z"/>
<path d="M940 2790 c-171 -36 -312 -113 -433 -235 -174 -175 -250 -364 -249
-615 0 -92 6 -145 21 -202 86 -329 297 -548 616 -640 71 -20 101 -23 270 -23
189 0 191 0 285 33 119 41 217 102 297 184 81 81 114 127 163 226 54 107 81
214 83 332 l2 95 -417 3 -418 2 0 -145 0 -145 234 0 c150 0 237 -4 241 -10 10
-17 -44 -100 -102 -158 -147 -147 -420 -175 -642 -66 -54 27 -96 58 -151 113
-122 122 -170 237 -170 406 0 167 44 270 164 391 58 58 100 90 147 112 245
117 533 66 745 -131 l32 -29 106 102 c58 57 106 106 106 111 0 15 -110 113
-179 160 -147 99 -330 150 -543 148 -78 0 -154 -7 -208 -19z"/>
<path d="M7060 1960 l0 -850 149 0 149 0 4 363 c5 401 9 427 71 509 50 66 107
100 171 106 78 6 121 -4 163 -41 80 -70 93 -157 93 -619 l0 -318 150 0 150 0
0 398 c0 218 -5 437 -10 485 -16 156 -86 264 -211 327 -151 77 -330 58 -494
-51 -40 -27 -76 -49 -79 -49 -3 0 -6 133 -6 295 l0 295 -150 0 -150 0 0 -850z"/>
<path d="M2658 2356 c-64 -17 -121 -57 -158 -111 -17 -25 -35 -45 -40 -45 -6
0 -10 32 -10 70 l0 71 -127 -3 -128 -3 -3 -612 -2 -613 155 0 155 0 0 368 c-1
390 3 443 46 529 40 83 94 111 169 88 39 -11 44 -11 50 4 46 118 85 233 80
240 -6 10 -94 31 -123 30 -9 0 -38 -6 -64 -13z"/>
<path d="M3499 2360 c-253 -40 -468 -244 -524 -496 -22 -98 -16 -251 14 -344
58 -182 203 -334 389 -408 62 -25 78 -26 222 -27 138 0 162 3 220 23 194 70
339 218 404 413 24 69 29 103 30 189 1 125 -12 186 -66 299 -74 156 -241 290
-416 335 -78 21 -200 28 -273 16z m269 -315 c66 -36 116 -91 151 -164 23 -49
26 -68 26 -161 0 -99 -2 -110 -33 -172 -38 -77 -92 -130 -171 -166 -80 -37
-192 -37 -272 0 -79 36 -133 89 -171 166 -31 62 -33 73 -32 167 0 130 24 194
99 270 76 75 133 96 255 92 83 -2 102 -6 148 -32z"/>
<path d="M4392 2323 c5 -16 370 -1026 420 -1160 l19 -53 97 0 97 0 128 334
c130 336 145 369 153 351 3 -5 63 -161 132 -345 l127 -335 100 0 99 0 222 605
c122 333 220 608 218 612 -3 5 -68 8 -145 8 l-140 0 -14 -32 c-7 -18 -63 -172
-125 -343 -61 -170 -113 -311 -115 -314 -3 -2 -8 -2 -11 1 -3 3 -63 158 -134
345 l-128 338 -86 3 c-73 2 -87 0 -97 -15 -6 -10 -68 -166 -137 -348 -70 -181
-131 -329 -136 -328 -5 1 -64 156 -131 345 l-122 343 -148 3 c-137 2 -147 1
-143 -15z"/>
<path d="M2320 827 c-68 -36 -104 -100 -109 -195 -4 -91 9 -140 52 -189 68
-77 181 -96 277 -45 42 21 59 39 84 82 26 47 31 64 31 130 0 95 -30 160 -94
205 -37 26 -53 30 -119 33 -66 3 -83 0 -122 -21z m201 -51 c50 -34 73 -86 73
-166 0 -118 -51 -181 -153 -188 -65 -4 -109 19 -148 77 -33 48 -33 169 0 225
43 76 155 101 228 52z"/>
<path d="M3018 844 c-5 -4 -8 -110 -8 -236 l0 -228 30 0 29 0 3 103 3 102 62
0 c74 0 90 -12 164 -127 46 -73 52 -78 84 -78 19 0 35 2 35 5 0 13 -78 124
-113 162 l-39 41 45 20 c51 23 77 61 77 114 0 39 -30 92 -62 109 -26 14 -298
26 -310 13z m265 -56 c31 -16 46 -39 46 -68 0 -59 -42 -80 -163 -80 l-96 0 0
73 c0 41 3 77 7 80 11 12 183 8 206 -5z"/>
<path d="M3874 831 c-114 -52 -160 -216 -96 -342 44 -87 123 -126 237 -116 60
4 128 31 159 62 12 12 16 36 16 96 l0 79 -100 0 c-100 0 -100 0 -100 -25 0
-23 3 -24 68 -27 l67 -3 0 -44 c0 -40 -4 -47 -33 -64 -17 -10 -58 -21 -90 -24
-141 -11 -225 112 -182 267 21 78 118 130 204 110 40 -9 82 -41 92 -72 8 -25
54 -25 54 1 0 29 -42 82 -80 102 -47 26 -160 25 -216 0z"/>
<path d="M4682 838 c-5 -7 -40 -92 -77 -188 -37 -96 -76 -197 -86 -223 l-19
-48 32 3 c30 3 34 8 58 71 l24 67 102 0 101 0 27 -70 c27 -67 29 -70 61 -70
l34 0 -65 158 c-36 86 -77 186 -91 222 -32 80 -40 90 -68 90 -12 0 -27 -6 -33
-12z m67 -139 c53 -139 56 -129 -34 -129 -69 0 -77 2 -73 18 17 61 64 191 70
192 3 0 20 -36 37 -81z"/>
<path d="M5267 843 c-4 -3 -7 -109 -7 -235 l0 -228 30 0 30 0 0 175 c0 96 4
175 8 175 4 0 61 -79 127 -175 114 -169 119 -175 152 -175 l33 0 -2 233 -3
232 -25 0 -25 0 -3 -177 c-1 -98 -6 -178 -10 -178 -4 0 -43 55 -87 122 -129
196 -162 238 -188 238 -13 0 -27 -3 -30 -7z"/>
<path d="M6030 615 l0 -235 25 0 25 0 0 235 0 235 -25 0 -25 0 0 -235z"/>
<path d="M6575 833 c-83 -43 -119 -107 -119 -213 -1 -85 14 -137 52 -182 80
-95 262 -89 327 11 34 52 35 73 4 81 -23 7 -28 3 -43 -31 -47 -106 -198 -106
-260 1 -28 47 -29 169 -2 222 49 101 201 111 254 17 17 -29 36 -36 60 -20 28
17 -34 99 -91 120 -42 16 -147 13 -182 -6z"/>
</g>
</svg>
